<svg width="174" height="244" viewBox="0 0 174 244" fill="none" xmlns="http://www.w3.org/2000/svg">
<path d="M25.6976 174.119L31.311 170.682L34.4296 176.028L28.8161 179.464L30.812 182.774L44.4091 174.628L42.4132 171.318L36.9245 174.628L33.8059 169.282L39.2946 165.973L37.2987 162.536L23.7017 170.682L25.6976 174.119ZM40.1678 195.502L42.4132 193.847L46.904 197.284L46.0308 199.957L49.2741 202.375L54.2638 186.083L50.5215 183.283L36.7997 192.956L40.1678 195.502ZM48.0267 194.229L45.0328 191.938L49.8978 188.501L48.0267 194.229ZM62.9959 209.63L64.867 200.72L66.6135 210.393L69.3578 211.03L74.8465 202.884L72.9754 211.794L76.7177 212.557L79.961 196.775L75.7197 195.884L69.1083 205.811L66.8629 193.974L62.4969 193.083L59.1288 208.739L62.9959 209.63ZM95.055 214.594C96.5519 214.466 98.0488 213.83 99.1715 212.685C100.169 211.666 100.544 210.393 100.419 208.993C100.419 208.357 100.169 207.593 99.7952 207.084C99.421 206.575 99.0468 206.193 98.5478 205.939C98.0488 205.684 97.5499 205.557 96.9261 205.43C96.3024 205.302 95.8035 205.175 95.1797 205.048C94.556 204.92 94.057 204.92 93.5581 204.793C93.1838 204.666 92.6849 204.539 92.4354 204.284C92.0611 204.029 91.9364 203.648 91.9364 203.139C91.8117 202.757 91.9364 202.248 92.3106 201.993C92.5601 201.738 93.0591 201.484 93.4333 201.484C93.9323 201.357 94.3065 201.484 94.6808 201.866C95.055 202.248 95.3045 202.629 95.4292 203.139L99.5458 202.629C99.421 201.229 98.6726 199.829 97.5499 199.066C96.3024 198.429 94.8055 198.175 93.3086 198.429C91.8117 198.556 90.4395 199.193 89.3168 200.211C88.3188 201.229 87.8199 202.629 88.0694 204.029C88.0694 204.666 88.3188 205.43 88.6931 205.939C88.9426 206.448 89.4415 206.83 89.9405 207.084C90.4395 207.339 90.9385 207.466 91.5622 207.593C92.1859 207.721 92.6849 207.848 93.3086 207.975C93.8076 208.102 94.3065 208.102 94.9302 208.23C95.3045 208.357 95.8035 208.484 96.0529 208.739C96.6767 209.248 96.8014 210.266 96.3024 211.03C95.9282 211.412 95.554 211.666 95.055 211.666C94.057 211.921 93.1838 211.284 92.9343 210.266C92.9343 210.139 92.9343 210.139 92.9343 210.012L88.9426 210.521C89.0673 211.921 89.8158 213.194 90.9385 213.957C91.9364 214.594 93.5581 214.848 95.055 214.594ZM119.754 207.975L113.642 196.52L117.384 194.356L116.012 191.811L105.034 197.92L106.407 200.593L110.149 198.556L116.261 210.012L119.754 207.975ZM139.838 191.938L137.593 190.029L133.975 194.483L131.106 192.192L134.349 188.247L132.104 186.338L128.861 190.283L126.241 187.992L129.858 183.537L127.613 181.628L121.501 189.138L133.601 199.575L139.838 191.938ZM149.568 177.937L143.954 175.391L144.079 175.01L151.065 174.246L152.936 170.046L145.451 170.937C145.701 169.791 145.451 168.646 144.828 167.627C144.329 166.864 143.58 166.1 142.707 165.718C141.46 165.209 140.212 165.209 138.965 165.718C137.593 166.355 136.47 167.627 135.971 169.155L133.476 175.01L147.822 181.501L149.568 177.937ZM142.333 171.955L141.335 174.119L137.842 172.591L138.84 170.3C138.965 169.791 139.464 169.409 139.838 169.282C140.337 169.155 140.836 169.155 141.335 169.409C142.208 169.791 142.707 170.809 142.333 171.7C142.333 171.828 142.333 171.955 142.333 171.955Z" fill="#0B0033"/>
<path d="M50.8957 68.7311L46.0307 63.7672L51.2699 58.4215L56.135 63.3854L58.0061 61.4762L47.0287 50.1483L45.1575 52.1847L49.8978 57.0214L44.6585 62.3671L39.9183 57.5305L38.1719 59.4397L49.1493 70.7676L50.8957 68.7311ZM66.3639 55.7486L66.6134 52.312L72.9753 50.6574L74.8465 53.4576L77.4661 52.8211L68.1103 38.8203L65.2412 39.584L63.8691 56.5123L66.3639 55.7486ZM71.8526 48.7482L66.8629 50.021L67.4866 42.1296L71.8526 48.7482ZM87.5703 51.5483L88.4435 45.1844L91.1879 45.5662C92.6848 45.948 94.1817 45.5662 95.4292 44.8025C96.4271 44.0388 97.0508 42.8933 97.1756 41.6205C97.4251 40.3477 97.0508 39.0749 96.1776 38.0567C95.1797 36.9111 93.8075 36.2747 92.3106 36.1475L86.9466 35.3838L84.9507 51.1665L87.5703 51.5483ZM91.4374 43.5297L88.693 43.1479L89.4415 37.8021L92.1858 38.1839C92.9343 38.1839 93.6828 38.5658 94.3065 39.2022C94.6807 39.8386 94.9302 40.6023 94.8055 41.2387C94.8055 42.0024 94.4312 42.6388 93.8075 43.1479C93.059 43.5297 92.3106 43.657 91.4374 43.5297ZM105.658 56.0032L109.151 50.6574L111.521 52.1847C112.769 53.203 114.265 53.5848 115.762 53.4576C117.01 53.203 118.008 52.4393 118.756 51.4211C119.505 50.4028 119.629 49.0027 119.38 47.8572C118.881 46.4571 118.008 45.1844 116.636 44.4207L112.145 41.366L103.538 54.6031L105.658 56.0032ZM112.519 50.5301L110.149 49.0027L113.018 44.5479L115.388 46.0753C116.137 46.4572 116.636 47.0935 116.885 47.8572C117.01 48.6209 116.885 49.3846 116.386 49.8937C116.012 50.5301 115.388 51.0392 114.764 51.1665C114.016 51.2938 113.268 51.0392 112.519 50.5301ZM122.124 71.1495L126.989 68.0947L138.216 67.0765L136.719 64.6582L128.361 65.6764L132.852 58.4215L131.355 56.0032L125.742 65.931L120.877 68.9857L122.124 71.1495Z" fill="#0B0033"/>
<path fill-rule="evenodd" clip-rule="evenodd" d="M29.4393 118.37C28.4413 118.37 27.6929 119.134 27.6929 120.152C27.6929 121.17 28.4413 121.934 29.4393 121.934C30.4372 121.934 31.1857 121.17 31.1857 120.152C31.1857 119.134 30.4372 118.37 29.4393 118.37Z" fill="#0B0033"/>
<path fill-rule="evenodd" clip-rule="evenodd" d="M145.451 118.37C144.453 118.37 143.705 119.134 143.705 120.152C143.705 121.17 144.453 121.934 145.451 121.934C146.449 121.934 147.197 121.17 147.197 120.152C147.197 119.134 146.449 118.37 145.451 118.37Z" fill="#0B0033"/>
<path d="M86.3205 98.3887C98.7948 98.3887 109.523 107.426 111.768 120.026H114.263V97.2432C114.263 93.1702 111.02 89.9882 107.153 89.9882C103.161 89.9882 100.042 93.2975 100.042 97.2432V99.4069C91.5597 94.6976 81.206 94.6976 72.7234 99.4069V97.2432C72.8482 93.1702 69.8543 89.8609 65.8625 89.6064C61.8707 89.4791 58.6274 92.5338 58.3779 96.6068C58.3779 96.8613 58.3779 96.9886 58.3779 97.2432V120.026H60.8728C62.9934 107.553 73.8461 98.3887 86.3205 98.3887ZM107.153 92.5338C109.772 92.5338 111.768 94.6976 111.768 97.2432V112.008C109.648 107.553 106.529 103.862 102.537 100.934V97.1159C102.662 94.5703 104.658 92.5338 107.153 92.5338ZM60.8728 97.2432C60.7481 94.5703 62.744 92.4065 65.2388 92.2793C67.8584 92.152 69.9791 94.1885 70.1038 96.7341C70.1038 96.8613 70.1038 97.1159 70.1038 97.2432V100.934C66.112 103.734 62.8687 107.553 60.7481 111.88L60.8728 97.2432Z" fill="#26C485"/>
<path d="M67.8608 120.154H70.3557C70.4805 118.117 72.2269 116.59 74.2228 116.59C76.0939 116.717 77.5908 118.244 77.7156 120.154H80.2104C80.0857 116.717 77.2166 114.044 73.8485 114.171C70.6052 114.299 67.9856 116.844 67.8608 120.154Z" fill="#26C485"/>
<path d="M98.6715 113.917C95.3034 113.917 92.5591 116.717 92.5591 120.154H95.054C95.1787 118.117 96.9251 116.59 98.921 116.59C100.792 116.717 102.289 118.245 102.414 120.154H104.909C104.784 116.717 102.04 113.917 98.6715 113.917Z" fill="#26C485"/>
<path d="M112.768 141.791C109.524 145.228 104.161 145.482 100.668 142.173C97.2996 138.864 97.0501 133.391 100.293 129.827C100.418 129.7 100.543 129.572 100.668 129.445L98.9213 127.663C96.9254 129.7 95.678 132.627 95.678 135.554C95.678 137.845 93.8068 139.755 91.5614 139.755C89.6903 139.755 88.1933 138.482 87.6944 136.827L91.6862 129.827C91.9356 129.445 91.9356 128.936 91.6862 128.554C91.4367 128.172 91.0624 127.918 90.5635 127.918H82.0809C81.3324 127.918 80.8335 128.554 80.8335 129.19C80.8335 129.445 80.8335 129.572 80.9582 129.827L84.95 136.827C84.3263 138.991 82.0809 140.264 79.9603 139.627C78.2139 139.118 76.9664 137.464 77.0912 135.682C77.0912 132.754 75.9685 129.954 73.8478 127.79L72.1014 129.572C75.3448 133.009 75.22 138.609 71.7272 141.918C68.4839 145.1 63.3694 145.1 60.0013 141.918L58.2549 143.7C62.4962 148.028 69.4818 148.028 73.8478 143.7C74.8458 142.682 75.719 141.409 76.218 140.009C76.8417 140.773 77.7149 141.409 78.7128 141.791V149.046H94.3058V141.664C95.179 141.282 95.9274 140.646 96.6759 139.882C99.046 145.61 105.533 148.282 111.146 145.864C112.394 145.355 113.641 144.464 114.639 143.573L112.768 141.791ZM88.4428 130.336L86.3222 134.027L84.2015 130.336H88.4428ZM81.083 146.501V142.3C82.5799 142.3 83.9521 141.791 85.1995 140.773V146.501H81.083ZM91.8109 146.501H87.6944V140.9C88.8171 141.791 90.1892 142.3 91.6862 142.3H91.8109V146.501Z" fill="#26C485"/>
</svg>