<svg xmlns="http://www.w3.org/2000/svg" width="109.162" height="150" viewBox="0 0 109.162 150">
    <defs>
        <style>
            .prefix__cls-1,.prefix__cls-2{fill:#172a3a}.prefix__cls-2{fill-rule:evenodd}.prefix__cls-3{fill:#3fbf8c}
        </style>
    </defs>
    <g id="prefix__logo-rund-weiss-rgb" transform="translate(0 -.2)">
        <g id="prefix__Layer_1_1_" transform="translate(14.921 21.875)">
            <g id="prefix__Group-2">
                <g id="prefix__Group-3" transform="translate(0 78.456)">
                    <path id="prefix__HAMSTER" d="M20.257 134.847l3.534-2.12 1.963 3.3-3.534 2.12 1.257 2.042 8.56-5.026-1.257-2.042-3.455 2.042-1.963-3.3 3.455-2.042-1.257-2.121-8.56 5.026zm9.11 13.194l1.414-1.021 2.827 2.12-.55 1.649 2.042 1.492 3.141-10.052-2.356-1.729-8.639 5.969zm4.948-.785l-1.885-1.414 3.063-2.12zm9.424 9.5l1.178-5.5 1.1 5.969 1.728.393L51.2 152.6l-1.178 5.5 2.356.471 2.042-9.738-2.67-.55-4.164 6.117-1.414-7.3-2.749-.55-2.12 9.66zm20.183 3.063a4.16 4.16 0 0 0 2.592-1.178 2.736 2.736 0 0 0 .785-2.277 2.116 2.116 0 0 0-.393-1.178 2.228 2.228 0 0 0-.785-.707 3.889 3.889 0 0 0-1.021-.314c-.393-.079-.707-.157-1.1-.236s-.707-.079-1.021-.157a1.94 1.94 0 0 1-.707-.314.766.766 0 0 1-.314-.707.633.633 0 0 1 .236-.707 1.17 1.17 0 0 1 .707-.314.753.753 0 0 1 .785.236 1.63 1.63 0 0 1 .471.785l2.592-.314a3.027 3.027 0 0 0-1.257-2.2 4.389 4.389 0 0 0-2.67-.393 4.306 4.306 0 0 0-2.513 1.1 2.662 2.662 0 0 0-.785 2.356 2.116 2.116 0 0 0 .393 1.178 1.719 1.719 0 0 0 .785.707 3.888 3.888 0 0 0 1.021.314c.393.079.707.157 1.1.236.314.079.628.079 1.021.157a1.94 1.94 0 0 1 .707.314 1.071 1.071 0 0 1 .157 1.414 1.261 1.261 0 0 1-2.12-.471v-.157l-2.513.314a2.873 2.873 0 0 0 1.257 2.12 3.973 3.973 0 0 0 2.592.393zm15.55-4.084l-3.848-7.068 2.356-1.335-.864-1.571-6.911 3.77.864 1.649 2.356-1.257 3.848 7.068zm12.644-9.9l-1.416-1.172-2.277 2.749L86.618 146l2.042-2.435-1.414-1.178-2.046 2.433-1.649-1.414 2.277-2.749-1.414-1.178-3.848 4.633 7.618 6.44zm6.126-8.639l-3.534-1.571.079-.236 4.4-.471 1.178-2.592-4.712.55a2.7 2.7 0 0 0-.393-2.042 3.24 3.24 0 0 0-1.335-1.178 3.063 3.063 0 0 0-2.356 0 3.6 3.6 0 0 0-1.885 2.12L88.11 135.4l9.031 4.005zm-4.555-3.691l-.628 1.335-2.2-.942.628-1.414a1 1 0 0 1 .628-.628 1.313 1.313 0 0 1 .942.079 1.1 1.1 0 0 1 .628 1.414v.157z" class="prefix__cls-1" transform="translate(-19 -127.7)"/>
                </g>
                <g id="prefix__Group-4" transform="translate(9.11)">
                    <path id="prefix__HAPPY" d="M38.61 48.376l-3.063-3.063 3.3-3.3 3.063 3.063 1.177-1.176-6.911-6.99L35 38.166l2.984 2.984-3.3 3.3-2.984-2.985-1.1 1.178 6.911 6.99zm9.738-8.01l.157-2.12 4.005-1.021 1.178 1.728 1.649-.393-5.89-8.639-1.806.471-.864 10.445zm3.452-4.32l-3.141.785.393-4.869zm9.9 1.728l.55-3.927 1.728.236a3.523 3.523 0 0 0 2.67-.471 2.785 2.785 0 0 0 1.1-1.963 2.547 2.547 0 0 0-.628-2.2 3.6 3.6 0 0 0-2.435-1.178l-3.378-.471-1.257 9.738zm2.435-4.948l-1.728-.236.471-3.3 1.728.236a1.936 1.936 0 0 1 1.335.628 1.889 1.889 0 0 1 .314 1.257 1.491 1.491 0 0 1-.628 1.178 2.418 2.418 0 0 1-1.493.237zm8.953 7.7l2.2-3.3 1.492.942a3.709 3.709 0 0 0 2.67.785 3.127 3.127 0 0 0 1.883-1.253 2.749 2.749 0 0 0 .393-2.2A3.825 3.825 0 0 0 80 33.376l-2.827-1.885-5.419 8.168zm4.319-3.377l-1.493-.949 1.806-2.749 1.492.942a1.857 1.857 0 0 1 .942 1.1 1.412 1.412 0 0 1-.314 1.257 1.666 1.666 0 0 1-1.021.785 1.962 1.962 0 0 1-1.414-.393zm6.047 12.723l3.063-1.885 7.068-.628-.942-1.492-5.262.628 2.827-4.476-.942-1.492-3.534 6.126-3.063 1.885z" class="prefix__cls-1" transform="translate(-30.6 -27.8)"/>
                </g>
                <path id="prefix__Fill-1935" d="M23.3 93a1.1 1.1 0 1 0 1.1 1.1 1.074 1.074 0 0 0-1.1-1.1" class="prefix__cls-2" transform="translate(-19.687 -41.796)"/>
                <path id="prefix__Fill-1935-2" d="M116.3 93a1.1 1.1 0 1 0 1.1 1.1 1.074 1.074 0 0 0-1.1-1.1" class="prefix__cls-2" transform="translate(-39.65 -41.796)"/>
            </g>
        </g>
        <g id="prefix__Layer_2_1_" transform="translate(0 .2)">
            <path id="prefix__Path_13" d="M64.392 75.818a16.253 16.253 0 0 1 16.021 13.351h1.571V75.111a4.476 4.476 0 0 0-8.953 0v1.335a18.056 18.056 0 0 0-17.2 0v-1.335a4.52 4.52 0 1 0-9.031-.393v14.45h1.571a16.265 16.265 0 0 1 16.021-13.35zm13.115-3.613a2.9 2.9 0 0 1 2.906 2.906v9.11a18.068 18.068 0 0 0-5.813-6.832v-2.356a2.935 2.935 0 0 1 2.907-2.827zm-29.136 2.906a2.91 2.91 0 0 1 5.812-.314v2.592a18.043 18.043 0 0 0-5.89 6.754z" class="prefix__cls-3" data-name="Path 13" transform="translate(-10.046 -15.268)"/>
            <path id="prefix__Path_14" d="M54.4 93.39h1.571a2.406 2.406 0 0 1 2.435-2.2 2.365 2.365 0 0 1 2.2 2.2h1.571a3.893 3.893 0 0 0-7.775 0z" class="prefix__cls-3" data-name="Path 14" transform="translate(-11.677 -19.411)"/>
            <path id="prefix__Path_15" d="M78.048 89.5a3.854 3.854 0 0 0-3.848 3.848h1.571a2.406 2.406 0 0 1 2.435-2.2 2.365 2.365 0 0 1 2.2 2.2h1.571a3.975 3.975 0 0 0-3.929-3.848z" class="prefix__cls-3" data-name="Path 15" transform="translate(-15.928 -19.369)"/>
            <path id="prefix__Path_16" d="M81.019 109.017a5.389 5.389 0 1 1-7.853-7.382l.236-.236-1.1-1.1a7.033 7.033 0 0 0-2.042 4.869 2.615 2.615 0 0 1-2.592 2.592 2.545 2.545 0 0 1-2.435-1.806l2.513-4.319a.713.713 0 0 0 0-.785.825.825 0 0 0-.707-.393H61.7a.787.787 0 0 0-.785.785.708.708 0 0 0 .079.393l2.513 4.319a2.546 2.546 0 0 1-3.141 1.728 2.431 2.431 0 0 1-1.806-2.435 6.839 6.839 0 0 0-2.042-4.869l-1.1 1.1A5.389 5.389 0 0 1 47.8 109.1l-1.1 1.1a7.016 7.016 0 0 0 9.817 0 6.379 6.379 0 0 0 1.492-2.277 3.794 3.794 0 0 0 1.571 1.1v4.476h9.82v-4.555a4.887 4.887 0 0 0 1.492-1.1A6.954 6.954 0 0 0 80 111.53a8.1 8.1 0 0 0 2.2-1.414zm-15.314-7.068l-1.335 2.277-1.335-2.277zm-4.634 9.974v-2.592a4.055 4.055 0 0 0 2.592-.942v3.534zm6.754 0h-2.591v-3.455a4.058 4.058 0 0 0 2.513.864h.079v2.592z" class="prefix__cls-3" data-name="Path 16" transform="translate(-10.025 -21.687)"/>
            <path id="prefix__Path_17" d="M56.483 6.971a48.2 48.2 0 0 1 48.141 48.141V97.52a48.2 48.2 0 0 1-48.141 48.141h-1.492A48.2 48.2 0 0 1 6.849 97.52V55.112A48.2 48.2 0 0 1 54.991 6.971h1.492M56.4 5.4h-1.488A49.873 49.873 0 0 0 5.2 55.112V97.52a49.873 49.873 0 0 0 49.712 49.712H56.4a49.873 49.873 0 0 0 49.716-49.712V55.112A49.772 49.772 0 0 0 56.4 5.4z" class="prefix__cls-1" data-name="Path 17" transform="translate(-1.116 -1.316)"/>
            <path id="prefix__Path_18" d="M55.995 1.771a51.784 51.784 0 0 1 51.6 51.6v43.661a51.784 51.784 0 0 1-51.6 51.6h-2.827a51.733 51.733 0 0 1-51.6-51.6V53.368a51.784 51.784 0 0 1 51.6-51.6h2.827m0-1.571h-2.827A53.359 53.359 0 0 0 0 53.368v43.664A53.359 53.359 0 0 0 53.168 150.2h2.827a53.359 53.359 0 0 0 53.168-53.168V53.368A53.359 53.359 0 0 0 55.995.2z" class="prefix__cls-1" data-name="Path 18" transform="translate(0 -.2)"/>
        </g>
    </g>
</svg>
